<svg width="1440" height="980" viewBox="0 0 1440 980" fill="none" xmlns="http://www.w3.org/2000/svg">
<g clip-path="url(#clip0_91_9901)">
<g opacity="0.7">
<path d="M242.667 573.333C242.667 548.666 264.007 528.666 290.332 528.666C316.659 528.666 338 548.663 338 573.333C338 598.003 316.659 618 290.332 618C264.007 618 242.667 598.003 242.667 573.333Z" fill="#F4900C"/>
<path d="M266.974 541.078C266.203 540.355 264.672 540.545 263.06 541.403C253.526 534.007 238.061 531.516 237.362 531.408C235.785 531.167 234.303 532.158 234.04 533.631C233.777 535.103 234.837 536.5 236.412 536.747C236.565 536.771 250.666 539.058 259.007 545.301C258.212 546.722 258.071 548.049 258.804 548.734C259.931 549.792 262.676 548.934 264.932 546.82C267.188 544.708 268.101 542.136 266.974 541.078Z" fill="#662113"/>
<path d="M294.668 523.253C294.668 523.253 285.695 534.942 274.385 537.527C265.779 539.495 254.341 539.685 253.2 537.194C252.062 534.706 257.742 526.536 267.555 522.595C277.369 518.656 294.668 523.253 294.668 523.253Z" fill="#5C913B"/>
</g>
<path d="M1314.65 257.739C1306.68 227.99 1276.1 210.332 1246.35 218.303C1216.59 226.275 1198.94 256.854 1206.91 286.607C1214.88 316.359 1245.46 334.014 1275.21 326.041C1304.96 318.07 1322.62 287.491 1314.65 257.739Z" fill="#F4900C"/>
<path d="M1276.75 226.199C1277.39 225.094 1279.18 224.859 1281.28 225.406C1289.67 213.599 1306.34 205.913 1307.09 205.571C1308.8 204.802 1310.79 205.549 1311.57 207.245C1312.34 208.942 1311.59 210.947 1309.89 211.721C1309.73 211.797 1294.53 218.825 1287.12 228.88C1288.48 230.353 1289.07 231.91 1288.46 232.958C1287.53 234.576 1284.15 234.372 1280.92 232.505C1277.68 230.642 1275.82 227.817 1276.75 226.199Z" fill="#662113"/>
<path d="M1239.7 213.087C1239.7 213.087 1253.61 224.468 1267.23 224.161C1277.59 223.928 1290.58 220.693 1291.06 217.344C1291.55 213.999 1282.49 205.866 1270.12 204.084C1257.76 202.305 1239.7 213.087 1239.7 213.087Z" fill="#5C913B"/>
<g opacity="0.7">
<path d="M251.667 42.3332C251.667 17.6662 273.007 -2.33374 299.332 -2.33374C325.659 -2.33374 347 17.6635 347 42.3332C347 67.0029 325.659 87.0002 299.332 87.0002C273.007 87.0002 251.667 67.0029 251.667 42.3332Z" fill="#F4900C"/>
<path d="M275.974 10.0781C275.203 9.35532 273.672 9.54482 272.06 10.403C262.526 3.0072 247.061 0.516678 246.362 0.408395C244.785 0.167464 243.303 1.15826 243.04 2.63091C242.777 4.10357 243.837 5.50043 245.412 5.74677C245.565 5.77114 259.666 8.05863 268.007 14.3012C267.212 15.7224 267.071 17.0489 267.804 17.7338C268.931 18.7922 271.676 17.9341 273.932 15.8199C276.188 13.7083 277.101 11.1366 275.974 10.0781Z" fill="#662113"/>
<path d="M303.668 -7.74725C303.668 -7.74725 294.695 3.94196 283.385 6.52723C274.779 8.49529 263.341 8.68478 262.2 6.19426C261.062 3.70645 266.742 -4.46355 276.555 -8.40507C286.369 -12.3439 303.668 -7.74725 303.668 -7.74725Z" fill="#5C913B"/>
</g>
<g opacity="0.7">
<path d="M194.46 96.6746C186.071 83.4581 169.047 79.2302 156.439 87.2332C143.829 95.2371 140.408 112.44 148.798 125.658C157.188 138.875 174.21 143.102 186.82 135.098C199.429 127.095 202.849 109.893 194.46 96.6746Z" fill="#F4900C"/>
<path d="M171.847 86.7825C171.971 86.1607 172.769 85.7967 173.833 85.7664C175.884 78.9054 182.444 72.8695 182.742 72.5989C183.416 71.9903 184.463 72.0706 185.089 72.7797C185.716 73.4888 185.683 74.5596 185.013 75.1702C184.948 75.2298 178.972 80.7424 177.1 86.6228C177.964 87.1428 178.483 87.8105 178.364 88.4005C178.185 89.3102 176.578 89.6848 174.778 89.2379C172.98 88.7925 171.668 87.6921 171.847 86.7825Z" fill="#662113"/>
<path d="M152.521 85.6514C152.521 85.6514 160.794 89.1864 167.091 87.1331C171.882 85.5711 177.425 82.1954 177.124 80.5141C176.823 78.8351 171.324 76.1844 165.283 77.0561C159.243 77.9293 152.521 85.6514 152.521 85.6514Z" fill="#5C913B"/>
</g>
<path d="M1113.65 573.739C1105.68 543.99 1075.1 526.332 1045.35 534.303C1015.59 542.275 997.94 572.855 1005.91 602.607C1013.88 632.359 1044.46 650.014 1074.21 642.042C1103.96 634.07 1121.62 603.491 1113.65 573.739Z" fill="#F4900C"/>
<path d="M1075.75 542.199C1076.39 541.094 1078.18 540.859 1080.28 541.406C1088.67 529.6 1105.34 521.913 1106.09 521.571C1107.8 520.803 1109.79 521.549 1110.57 523.245C1111.34 524.942 1110.59 526.947 1108.89 527.721C1108.73 527.797 1093.53 534.826 1086.12 544.88C1087.48 546.353 1088.07 547.91 1087.46 548.958C1086.53 550.576 1083.15 550.372 1079.92 548.506C1076.68 546.642 1074.82 543.817 1075.75 542.199Z" fill="#662113"/>
<path d="M1038.7 529.088C1038.7 529.088 1052.61 540.468 1066.23 540.161C1076.59 539.928 1089.58 536.694 1090.06 533.344C1090.55 529.999 1081.49 521.866 1069.12 520.084C1056.76 518.306 1038.7 529.088 1038.7 529.088Z" fill="#5C913B"/>
<g opacity="0.7">
<path d="M1114.42 55.8681C1114.42 32.8343 1095.74 14.1584 1072.71 14.1584C1049.67 14.1584 1031 32.8318 1031 55.8681C1031 78.9045 1049.67 97.5779 1072.71 97.5779C1095.74 97.5779 1114.42 78.9045 1114.42 55.8681Z" fill="#F4900C"/>
<path d="M1093.15 25.749C1093.82 25.0741 1095.16 25.251 1096.57 26.0523C1104.91 19.1462 1118.45 16.8206 1119.06 16.7195C1120.44 16.4945 1121.73 17.4197 1121.96 18.7949C1122.2 20.17 1121.27 21.4744 1119.89 21.7044C1119.76 21.7272 1107.42 23.8632 1100.12 29.6925C1100.81 31.0196 1100.94 32.2582 1100.3 32.8978C1099.31 33.8862 1096.91 33.0849 1094.93 31.1106C1092.96 29.1389 1092.16 26.7374 1093.15 25.749Z" fill="#662113"/>
<path d="M1068.92 9.1036C1068.92 9.1036 1076.77 20.0189 1086.66 22.433C1094.19 24.2708 1104.2 24.4477 1105.2 22.1221C1106.2 19.799 1101.23 12.1699 1092.64 8.48933C1084.05 4.81129 1068.92 9.1036 1068.92 9.1036Z" fill="#5C913B"/>
</g>
<path d="M987.647 289.739C979.675 259.99 949.095 242.332 919.347 250.303C889.594 258.275 871.94 288.854 879.912 318.607C887.884 348.359 918.463 366.014 948.215 358.041C977.964 350.07 995.619 319.491 987.647 289.739Z" fill="#F4900C"/>
<path d="M949.753 258.199C950.391 257.094 952.183 256.859 954.282 257.406C962.666 245.599 979.337 237.913 980.093 237.571C981.797 236.802 983.792 237.549 984.565 239.245C985.338 240.942 984.591 242.947 982.892 243.721C982.727 243.797 967.53 250.825 960.122 260.88C961.479 262.353 962.068 263.91 961.46 264.958C960.529 266.576 957.15 266.372 953.917 264.505C950.685 262.642 948.822 259.817 949.753 258.199Z" fill="#662113"/>
<path d="M912.697 245.087C912.697 245.087 926.614 256.468 940.232 256.161C950.593 255.928 963.58 252.693 964.065 249.344C964.547 245.999 955.488 237.866 943.124 236.084C930.761 234.305 912.697 245.087 912.697 245.087Z" fill="#5C913B"/>
<path d="M542.863 -1.56707C534.206 -33.8764 555.496 -67.6581 590.415 -77.0147C625.338 -86.3723 660.665 -67.7648 669.324 -35.452C677.982 -3.13911 656.691 30.639 621.768 39.9967C586.849 49.3533 551.522 30.7458 542.863 -1.56707Z" fill="#F4900C"/>
<g opacity="0.8">
<path d="M99.5114 342.299C119.4 344.37 133.847 362.173 131.775 382.062C129.704 401.953 111.901 416.398 92.0099 414.326C72.1189 412.254 57.6745 394.451 59.7461 374.56C61.8175 354.672 79.6204 340.227 99.5114 342.299Z" fill="#F4900C"/>
<path d="M123.606 363.372C124.249 362.85 124.217 361.678 123.652 360.388C130.365 353.806 133.59 342.331 133.732 341.812C134.051 340.64 133.368 339.437 132.202 339.115C131.035 338.793 129.825 339.476 129.503 340.645C129.471 340.759 126.517 351.221 120.827 356.998C119.744 356.278 118.686 356.06 118.076 356.557C117.134 357.319 117.61 359.465 119.137 361.347C120.662 363.229 122.663 364.135 123.606 363.372Z" fill="#662113"/>
<path d="M135.8 385.793C135.8 385.793 127.081 378.032 125.886 369.27C124.977 362.602 125.724 353.945 127.822 353.292C129.917 352.641 136.058 357.618 138.463 365.364C140.867 373.109 135.8 385.793 135.8 385.793Z" fill="#5C913B"/>
</g>
<g opacity="0.4">
<path d="M458.532 349.102C451.473 322.76 466.818 295.757 492.804 288.794C518.794 281.83 545.583 297.54 552.642 323.886C559.701 350.231 544.356 377.231 518.367 384.195C492.38 391.158 465.591 375.448 458.532 349.102Z" fill="#F4900C"/>
<path d="M473.298 308.226C472.33 307.659 470.873 308.266 469.527 309.609C457.999 304.232 442.02 305.663 441.299 305.733C439.673 305.893 438.493 307.343 438.655 308.985C438.817 310.627 440.264 311.838 441.888 311.685C442.046 311.671 456.621 310.383 466.641 314.844C466.263 316.572 466.503 318.026 467.424 318.563C468.839 319.395 471.302 317.753 472.925 314.898C474.548 312.047 474.713 309.059 473.298 308.226Z" fill="#662113"/>
<path d="M495.536 281.865C495.536 281.865 490.023 296.721 479.597 302.474C471.664 306.852 460.428 310.08 458.589 307.722C456.753 305.366 460.022 295.139 468.582 288.334C477.143 281.532 495.536 281.865 495.536 281.865Z" fill="#5C913B"/>
</g>
<g opacity="0.7">
<path d="M1095.58 981.526C1095.58 981.526 1105.64 994.63 1118.32 997.529C1127.97 999.735 1140.79 999.947 1142.07 997.155C1143.34 994.366 1136.98 985.207 1125.98 980.788C1114.97 976.372 1095.58 981.526 1095.58 981.526Z" fill="#5C913B"/>
</g>
<path d="M806.348 628.837C816.054 592.615 792.186 554.743 753.039 544.253C713.886 533.762 674.282 554.623 664.575 590.849C654.868 627.074 678.737 664.943 717.889 675.433C757.037 685.923 796.642 665.062 806.348 628.837Z" fill="#F4900C"/>
<path d="M782.89 571.785C784.322 571.031 786.524 571.92 788.584 573.822C805.672 566.761 829.65 569.266 830.732 569.386C833.173 569.661 834.987 571.706 834.798 573.973C834.61 576.241 832.484 577.869 830.045 577.604C829.808 577.578 807.938 575.318 793.078 581.162C793.7 583.565 793.389 585.569 792.028 586.283C789.936 587.388 786.192 585.034 783.669 581.031C781.144 577.031 780.798 572.891 782.89 571.785Z" fill="#662113"/>
<path d="M748.72 534.575C748.72 534.575 757.465 555.315 773.268 563.618C785.292 569.938 802.226 574.773 804.903 571.571C807.575 568.371 802.343 554.111 789.299 544.413C776.255 534.718 748.72 534.575 748.72 534.575Z" fill="#5C913B"/>
<g opacity="0.9">
<path d="M204.646 757.43C204.646 725.648 178.88 699.879 147.098 699.879C115.312 699.879 89.5467 725.644 89.5467 757.43C89.5467 789.216 115.312 814.981 147.098 814.981C178.88 814.981 204.646 789.216 204.646 757.43Z" fill="#F4900C"/>
<path d="M175.298 715.871C176.229 714.94 178.078 715.184 180.024 716.289C191.534 706.76 210.205 703.551 211.049 703.412C212.954 703.101 214.743 704.378 215.061 706.275C215.378 708.173 214.098 709.973 212.197 710.29C212.012 710.321 194.987 713.269 184.918 721.312C185.877 723.143 186.048 724.852 185.162 725.735C183.802 727.099 180.488 725.993 177.764 723.269C175.04 720.548 173.938 717.235 175.298 715.871Z" fill="#662113"/>
<path d="M141.863 692.903C141.863 692.903 152.696 707.964 166.351 711.295C176.742 713.83 190.551 714.074 191.929 710.865C193.303 707.66 186.445 697.133 174.597 692.055C162.748 686.98 141.863 692.903 141.863 692.903Z" fill="#5C913B"/>
</g>
<g opacity="0.9">
<path d="M1322.74 835.314C1299.77 807.927 1258.95 804.342 1231.56 827.311C1204.17 850.283 1200.59 891.106 1223.56 918.496C1246.53 945.887 1287.35 949.469 1314.74 926.497C1342.13 903.528 1345.71 862.705 1322.74 835.314Z" fill="#F4900C"/>
<path d="M1267.42 820.712C1267.55 819.236 1269.31 818.11 1271.79 817.657C1274.82 801.127 1288.59 784.868 1289.22 784.138C1290.64 782.494 1293.1 782.301 1294.75 783.707C1296.39 785.112 1296.59 787.588 1295.18 789.236C1295.04 789.396 1282.5 804.24 1279.64 818.448C1281.79 819.333 1283.17 820.682 1283.04 822.083C1282.86 824.241 1279.2 825.683 1274.89 825.304C1270.57 824.929 1267.23 822.87 1267.42 820.712Z" fill="#662113"/>
<path d="M1222 825.084C1222 825.084 1242.22 830.233 1256.4 823.235C1267.19 817.911 1279.26 808.141 1278.13 804.38C1277 800.625 1263.48 796.51 1249.6 800.697C1235.72 804.886 1222 825.084 1222 825.084Z" fill="#5C913B"/>
</g>
<g opacity="0.9">
<path d="M552.171 950.601C563.14 922.288 594.986 908.224 623.299 919.192C651.615 930.162 665.676 962.007 654.706 990.323C643.736 1018.64 611.891 1032.7 583.575 1021.73C555.262 1010.76 541.201 978.917 552.171 950.601Z" fill="#F4900C"/>
<path d="M591.491 923.785C590.983 922.634 589.252 922.214 587.137 922.527C580.171 910.066 564.646 900.763 563.942 900.348C562.353 899.414 560.318 899.934 559.38 901.514C558.443 903.095 558.962 905.14 560.546 906.079C560.7 906.171 574.849 914.672 581.044 925.312C579.557 926.613 578.815 928.076 579.3 929.168C580.041 930.853 583.374 931.011 586.741 929.525C590.107 928.041 592.232 925.47 591.491 923.785Z" fill="#662113"/>
<path d="M629.203 914.864C629.203 914.864 614.355 924.542 601.04 922.797C590.909 921.47 578.523 916.922 578.403 913.588C578.285 910.258 588.027 903.247 600.335 902.812C612.641 902.38 629.203 914.864 629.203 914.864Z" fill="#5C913B"/>
</g>
</g>
<defs>
<clipPath id="clip0_91_9901">
<rect width="1440" height="1513" fill="white" transform="translate(0 -278)"/>
</clipPath>
</defs>
</svg>
